<svg id="Layer_1" data-name="Layer 1" xmlns="http://www.w3.org/2000/svg" viewBox="0 0 100 100"><defs><style>.cls-1{fill:none;stroke:#4592cf;stroke-width:2px;}.cls-2{fill:#9fd4f5;}</style></defs><path class="cls-1" d="M52.28,97.7V46.8A5.77,5.77,0,0,0,51.63,44a12.91,12.91,0,0,0-2.15-2.65,4.11,4.11,0,0,0-2.4-1.5q-2,0-5.3,4a44.53,44.53,0,0,1,.3,5.3V97.7H28.28V54.9q0-8.51-1.15-11.9a28.94,28.94,0,0,0-4.85-8.1l12-8.4a13.3,13.3,0,0,1,4.6,5.5q7.2-5.51,10.2-5.5t11.3,7.7q8.29-7.71,11.7-7.7,2.51,0,8.55,5.25t7.55,7.4a9.68,9.68,0,0,1,1.5,5.65V97.7H75.88V46.8a5.25,5.25,0,0,0-.7-2.95,15.17,15.17,0,0,0-2.35-2.55,4.68,4.68,0,0,0-2.9-1.5q-1.25,0-4,3.3a9.52,9.52,0,0,1,.1,1.7V97.7Z"/><path class="cls-2" d="M51.12,45.3c.73,1.2,1.1,3.59,1.1,7.15a17.36,17.36,0,0,1-2.2,9q-2,2.91-8.5,8t-9.6,5.15q-5.51,0-12.6-5.75t-9-12.65l11.1-7.6a24.46,24.46,0,0,0,5.1,8.6q3.5,3.9,4.95,3.9a6.21,6.21,0,0,0,3.1-1,10.22,10.22,0,0,0,2.55-2,7.9,7.9,0,0,0,1.3-5c0-2.26-.54-3.66-1.6-4.2a42,42,0,0,0-7.75-4.5,90,90,0,0,1-10.65-6.05q-4.91-3.24-6.25-6.35a20.34,20.34,0,0,1-1.35-8.05A16.58,16.58,0,0,1,13,15.5q2-2.89,8.5-8t9.6-5.15q5.49,0,12.6,5.75t9,12.65l-11.1,7.7a25.43,25.43,0,0,0-5.1-8.65q-3.51-3.94-5-3.95a6.78,6.78,0,0,0-3.15.9A8.33,8.33,0,0,0,25.67,19c-.7.9-1.05,2.44-1.05,4.6s.66,3.62,2,4.35a44.81,44.81,0,0,0,7.3,4.4Q48.52,40.31,51.12,45.3Z"/><line class="cls-1" x1="28.28" y1="57.15" x2="28.28" y2="79.28"/></svg>