<svg id="Layer_1" data-name="Layer 1" xmlns="http://www.w3.org/2000/svg" viewBox="0 0 100 100"><defs><style>.cls-1{fill:none;stroke:#5c3b86;stroke-width:2px;}.cls-2{fill:#f3f4f6;}</style></defs><path class="cls-1" d="M51.51,97.59V46.69a5.67,5.67,0,0,0-.65-2.85,13.18,13.18,0,0,0-2.15-2.65,4.11,4.11,0,0,0-2.4-1.5c-1.33,0-3.1,1.34-5.3,4a44.65,44.65,0,0,1,.3,5.3v48.6H27.51V54.79q0-8.49-1.15-11.9a29,29,0,0,0-4.85-8.1l12-8.4a13.35,13.35,0,0,1,4.6,5.5q7.2-5.49,10.2-5.5t11.3,7.7q8.3-7.7,11.7-7.7,2.5,0,8.55,5.25T87.41,39a9.7,9.7,0,0,1,1.5,5.65v52.9H75.11V46.69a5.28,5.28,0,0,0-.7-2.95,14.75,14.75,0,0,0-2.35-2.55,4.68,4.68,0,0,0-2.9-1.5q-1.25,0-4,3.3a9.6,9.6,0,0,1,.1,1.7v52.9Z"/><path class="cls-2" d="M50.35,45.2q1.09,1.8,1.1,7.15a17.41,17.41,0,0,1-2.2,9q-2,2.9-8.5,8.05t-9.6,5.15q-5.5,0-12.6-5.75t-9-12.65l11.1-7.6a24.86,24.86,0,0,0,5.1,8.6q3.49,3.9,4.95,3.9a6.29,6.29,0,0,0,3.1-1,10.72,10.72,0,0,0,2.55-1.95,7.87,7.87,0,0,0,1.3-5c0-2.27-.53-3.67-1.6-4.2a40.56,40.56,0,0,0-7.75-4.5,94.63,94.63,0,0,1-10.65-6q-4.9-3.26-6.25-6.35a20.37,20.37,0,0,1-1.35-8,16.56,16.56,0,0,1,2.2-8.65q2-2.91,8.5-8t9.6-5.15Q35.86,2.2,43,8T52,20.6l-11.1,7.7a25.25,25.25,0,0,0-5.1-8.65c-2.33-2.64-4-3.95-4.95-3.95a6.78,6.78,0,0,0-3.15.9,8.43,8.43,0,0,0-2.75,2.25c-.7.9-1,2.43-1,4.6s.67,3.61,2,4.35a46.06,46.06,0,0,0,7.3,4.4Q47.75,40.2,50.35,45.2Z"/><path class="cls-1" d="M27,45.61s-2.53-10.48-3.83-12.32c6.51-4.14,8.25-5.42,8.25-5.42"/></svg>