<svg id="Layer_1" data-name="Layer 1" xmlns="http://www.w3.org/2000/svg" viewBox="0 0 80.36 96.4"><defs><style>.cls-1{fill:none;stroke:#0a0a90;stroke-width:2px;}.cls-2{fill:#f2f4f6;}</style></defs><path class="cls-1" d="M51.81,97.28V46.38a5.72,5.72,0,0,0-.65-2.85A12.91,12.91,0,0,0,49,40.88a4.11,4.11,0,0,0-2.4-1.5q-2,0-5.3,4a44.41,44.41,0,0,1,.3,5.3v48.6H27.81V54.48q0-8.5-1.15-11.9a28.94,28.94,0,0,0-4.85-8.1l12-8.4a13.3,13.3,0,0,1,4.6,5.5q7.2-5.5,10.2-5.5t11.3,7.7q8.3-7.71,11.7-7.7,2.51,0,8.55,5.25t7.55,7.4a9.66,9.66,0,0,1,1.5,5.65v52.9H75.41V46.38a5.25,5.25,0,0,0-.7-3,15.17,15.17,0,0,0-2.35-2.55,4.68,4.68,0,0,0-2.9-1.5q-1.24,0-3.95,3.3a9.52,9.52,0,0,1,.1,1.7v52.9Z" transform="translate(-9.85 -1.88)"/><path class="cls-2" d="M50.65,44.88q1.1,1.8,1.1,7.15a17.39,17.39,0,0,1-2.2,9q-2,2.91-8.5,8t-9.6,5.15q-5.5,0-12.6-5.75t-9-12.65L21,48.28a24.46,24.46,0,0,0,5.1,8.6q3.49,3.9,4.95,3.9a6.32,6.32,0,0,0,3.1-1,10.22,10.22,0,0,0,2.55-1.95,7.92,7.92,0,0,0,1.3-5c0-2.27-.54-3.67-1.6-4.2a42,42,0,0,0-7.75-4.5,91.43,91.43,0,0,1-10.65-6Q13,34.88,11.7,31.78a20.37,20.37,0,0,1-1.35-8,16.58,16.58,0,0,1,2.2-8.65q2-2.89,8.5-8t9.6-5.15q5.49,0,12.6,5.75t9,12.65L41.15,28a25.34,25.34,0,0,0-5.1-8.65q-3.51-3.94-4.95-3.95a6.78,6.78,0,0,0-3.15.9,8.33,8.33,0,0,0-2.75,2.25c-.7.9-1.05,2.43-1.05,4.6s.66,3.62,2,4.35a44.81,44.81,0,0,0,7.3,4.4Q48,39.88,50.65,44.88Z" transform="translate(-9.85 -1.88)"/><path class="cls-1" d="M27.28,45.3S24.75,34.81,23.45,33c6.51-4.13,8.25-5.42,8.25-5.42" transform="translate(-9.85 -1.88)"/></svg>