<svg id="Layer_1" data-name="Layer 1" xmlns="http://www.w3.org/2000/svg" viewBox="0 0 850.1 306.14"><defs><style>.cls-1{fill:none;stroke:#1d97ef;stroke-width:6.58px;}</style></defs><path id="Path_5" data-name="Path 5" class="cls-1" d="M38.75,155.68Q66.55,130.24,81,130.24t42.27,25.44q27.8,25.45,34.45,41.89,4.31,11.34,4.3,51.27v160.1H108V350.22H54v58.72H0V248.84q0-39.92,4.31-51.27Q11,181.13,38.75,155.68ZM54,248.84v54.41h54V248.84q0-32.09-3.13-39.33a53.89,53.89,0,0,0-10.76-15.27q-7.64-8-13.12-8t-13.12,8a54.12,54.12,0,0,0-10.77,15.27Q54,216.74,54,248.84Zm153,160.1V195.22q0-20-4.69-30.53a53.89,53.89,0,0,0-14.88-19.18l43.06-30.14q28.19,22.31,28.18,63V214q23.49-20.74,33.86-20.75T324.3,214.2q21.33,20.94,24.46,30.73,4.31,9.78,4.31,58.51T348.76,362q-3.13,9.8-24.46,30.73t-30.73,20.94q-13.69,0-43.84-28.57l-4.31,23.87Zm53.63-59.5q2.74,4.69,11.16,10t12.72,5.28q4.31,0,9.2-5.09A35.66,35.66,0,0,0,301,349.05q2.34-5.49,2.35-45.61T301,258a39.32,39.32,0,0,0-7.24-10.57q-4.9-5.28-9-5.28t-12.52,5.28a39.91,39.91,0,0,0-11.16,9.2Q258,263.33,258,303.84t2.74,45.6ZM440,362.75q6.27,5.87,9.79,5.87t9.59-5.87a52.22,52.22,0,0,0,8.81-10.57q5.09-8.61,5.08-48.54t-5.08-48.92a52.22,52.22,0,0,0-8.81-10.57q-6.06-5.86-9.59-5.87t-9.59,5.87a51.85,51.85,0,0,0-8.8,10.57q-5.1,8.61-5.09,48.53t5.09,48.93a54.65,54.65,0,0,0,8.6,10.57Zm45,31.7q-23.88,19.19-35.23,19.18t-35.43-19.18q-24.07-19.17-29.55-28.57-8.22-14.49-8.22-62.62T384.77,241q5.49-9.39,29.55-28.57t35.43-19.18q11.34,0,35.42,19.18T514.72,241q8.22,14.1,8.22,62.24t-8.22,62.62q-5.48,9.39-29.74,28.57ZM550.35,198H602V343.58q0,6.65,6.26,13.89T620,364.71q5.49,0,22.71-16V198H694.4v211H654.47l-4.7-23.1q-29.35,27.8-41.1,27.79t-35-21.72q-23.29-21.72-23.29-42.86ZM793,239.06v86.5a51.83,51.83,0,0,0,12.52,33.66q12.53,15.27,34.45,24.27l-43.06,30.14a112.2,112.2,0,0,1-39.53-30.33q-16-19.38-16-40.91V239.06H721.79V209.7l19.57-4.7q-.78-19.17-4.69-30.33a57,57,0,0,0-14.88-21.73l43.06-30.14Q793,145.1,793,186.21V198h43.84v41.11Z" transform="translate(3.29 -111.27)"/></svg>