<svg id="Layer_1" data-name="Layer 1" xmlns="http://www.w3.org/2000/svg" viewBox="0 0 844 186.41"><defs><style>.cls-1{fill:none;stroke:#1d97ef;stroke-width:4px;}</style></defs><path id="Path_5" data-name="Path 5" class="cls-1" d="M23.57,198.31q16.91-15.48,25.72-15.48T75,198.31q16.91,15.48,21,25.48,2.63,6.9,2.62,31.19v97.38H65.71V316.64H32.86v35.72H0V255q0-24.28,2.62-31.19Q6.67,213.79,23.57,198.31ZM32.86,255v33.09H65.71V255q0-19.53-1.9-23.93a32.86,32.86,0,0,0-6.55-9.29q-4.63-4.87-8-4.88t-8,4.88a33.06,33.06,0,0,0-6.55,9.29Q32.86,235.46,32.86,255ZM126,352.36v-130q0-12.15-2.86-18.57a32.67,32.67,0,0,0-9-11.67l26.19-18.33q17.14,13.56,17.14,38.33v21.67q14.28-12.63,20.6-12.62t19.28,12.73q13,12.75,14.88,18.69,2.63,6,2.62,35.6t-2.62,35.59q-1.9,6-14.88,18.69t-18.69,12.74q-8.32,0-26.67-17.38l-2.61,14.52Zm32.62-36.19q1.67,2.85,6.79,6.07t7.74,3.21c1.74,0,3.61-1,5.59-3.09a21.67,21.67,0,0,0,4.41-6.43q1.43-3.33,1.42-27.74t-1.42-27.62a24,24,0,0,0-4.41-6.43q-3-3.21-5.48-3.21t-7.61,3.21a24.13,24.13,0,0,0-6.79,5.6q-1.91,4-1.9,28.69t1.66,27.74Zm109.05,8.09q3.81,3.57,5.95,3.57t5.83-3.57a31.17,31.17,0,0,0,5.36-6.43q3.09-5.24,3.1-29.52t-3.1-29.76a31.71,31.71,0,0,0-5.35-6.43q-3.69-3.57-5.84-3.57t-5.83,3.57a32.09,32.09,0,0,0-5.36,6.43q-3.09,5.24-3.09,29.52t3.09,29.76a32.76,32.76,0,0,0,5.24,6.43ZM295,343.55q-14.52,11.65-21.43,11.66T252,343.55q-14.64-11.67-18-17.38-5-8.82-5-38.09t5-37.86q3.33-5.72,18-17.38t21.55-11.67q6.9,0,21.55,11.67t18,17.38q5,8.57,5,37.86t-5,38.09q-3.33,5.71-18.09,17.38ZM334.76,224h31.43V312.6q0,4,3.81,8.45t7.14,4.41q3.35,0,13.81-9.76V224h31.43V352.36H398.1l-2.86-14.05q-17.87,16.9-25,16.9T348.93,342q-14.18-13.22-14.17-26.07Zm147.62,25v52.62A31.54,31.54,0,0,0,490,322.12q7.62,9.28,20.95,14.76l-26.19,18.33a68.25,68.25,0,0,1-24.05-18.45Q451,325,451,311.88V249h-11.9V231.17l11.9-2.86q-.46-11.67-2.85-18.45a34.78,34.78,0,0,0-9.05-13.22l26.19-18.33q17.14,13.56,17.14,38.57V224h26.67v25ZM676,352.36H644.52V263.79q0-4.05-4.28-8.46t-7.26-4.4q-3,0-9.65,5.72v95.71H591.9V270.21q0-12.13-2.85-18.81a30.34,30.34,0,0,0-9-11.66l26.19-18.34A49.92,49.92,0,0,1,617.86,235q15.48-13.82,21.43-13.81,3.57,0,11.66,5.24A73.58,73.58,0,0,1,665.71,239q18.81-17.85,26.08-17.85t21.9,13.21q14.64,13.22,14.64,26.07V306.4q0,12.15,2.86,18.81a30.27,30.27,0,0,0,9,11.67l-26.19,18.33q-17.14-13.57-17.15-38.57V263.79q0-4.05-4.28-8.46t-7-4.4q-2.73,0-10.11,5.95a20.53,20.53,0,0,1,.47,3.58Zm164-64.53v8.58H782.38q0,14.28,3.57,22.61a18,18,0,0,0,4.29,5.84,9.25,9.25,0,0,0,6.43,3q3.33,0,8.33-5.71a41.78,41.78,0,0,0,7.86-13.81l24.52,17.38Q831,337.6,817.74,346.4t-21.31,8.81q-8.1,0-23.46-12.61T754.29,323q-3.33-7-3.34-34.76t3.34-34.76q3.33-7,18.69-19.64t22.5-12.62q7.14,0,22.5,12.62t18.69,19.64Q840,260.45,840,287.83Zm-33.1-29.76a20.5,20.5,0,0,0-5.35-6.43q-3.69-3.1-6.91-3.1t-7.26,6.31q-4.05,6.32-5,18.93h27.14Q808.82,261.17,806.9,258.07Z" transform="translate(2 -171.29)"/></svg>