<svg id="Layer_1" data-name="Layer 1" xmlns="http://www.w3.org/2000/svg" viewBox="0 0 633.72 533.43"><defs><style>.cls-1{fill:none;stroke:#1d97ef;stroke-width:3.17px;}</style></defs><g id="Group_6" data-name="Group 6"><path id="Path_9" data-name="Path 9" class="cls-1" d="M135.36,30.18q20.8-19,31.64-19t31.65,19q20.79,19.05,25.78,31.36,3.23,8.5,3.22,38.39V219.75H187.22V175.8H146.79v43.95H106.35V99.91q0-29.88,3.22-38.38Q114.57,49.23,135.36,30.18Zm11.43,69.73v40.73h40.43V99.91q0-24-2.35-29.44A40.31,40.31,0,0,0,176.82,59q-5.7-6-9.82-6t-9.83,6a40.51,40.51,0,0,0-8,11.43Q146.78,75.87,146.79,99.91ZM261.35,219.75v-160a58.29,58.29,0,0,0-3.52-22.85A40.32,40.32,0,0,0,246.7,22.55L278.93,0Q300,16.7,300,47.17V73.84q17.58-15.53,25.34-15.53T349.1,74q16,15.67,18.32,23,3.21,7.32,3.22,43.81t-3.22,43.8q-2.35,7.33-18.32,23t-23,15.68q-10.25,0-32.81-21.39l-3.22,17.87Zm40.14-44.53a24.84,24.84,0,0,0,8.35,7.47,20.89,20.89,0,0,0,9.52,3.95,10.11,10.11,0,0,0,6.89-3.8,26.57,26.57,0,0,0,5.42-7.92q1.75-4.09,1.76-34.13t-1.76-34a29.25,29.25,0,0,0-5.42-7.92,10,10,0,0,0-6.74-4,21,21,0,0,0-9.37,4,30.14,30.14,0,0,0-8.36,6.88q-2.32,5-2.33,35.32t2,34.13Zm134.19,10a13.07,13.07,0,0,0,7.32,4.39,12.48,12.48,0,0,0,7.18-4.39,39.14,39.14,0,0,0,6.6-7.92q3.8-6.45,3.8-36.33t-3.8-36.63a39.14,39.14,0,0,0-6.6-7.92A12.48,12.48,0,0,0,443,92a12.49,12.49,0,0,0-7.17,4.39,39.14,39.14,0,0,0-6.6,7.92q-3.8,6.45-3.8,36.33t3.8,36.63A40.94,40.94,0,0,0,435.68,185.18Zm33.7,23.73Q451.5,223.27,443,223.27t-26.51-14.36q-18-14.35-22.13-21.39-6.15-10.85-6.15-46.89t6.15-46.57q4.11-7,22.13-21.39T443,58.32q8.5,0,26.52,14.35t22.12,21.39q6.17,10.55,6.16,46.57t-6.16,46.89q-4.09,7-22.26,21.39ZM518.31,61.82H557v109a16.23,16.23,0,0,0,4.69,10.4,12.6,12.6,0,0,0,8.79,5.42q4.1,0,17-12V61.82h38.68V219.75H596.25l-3.51-17.29q-22,20.81-30.77,20.81T535.75,207q-17.43-16.26-17.43-32.08ZM700,92.59v64.75a38.82,38.82,0,0,0,9.37,25.2,63.94,63.94,0,0,0,25.79,18.16L702.9,223.26a84,84,0,0,1-29.59-22.7,47.31,47.31,0,0,1-12-30.62V92.59H646.65v-22L661.3,67.1a80.92,80.92,0,0,0-3.52-22.71,42.69,42.69,0,0,0-11.13-16.26L678.88,5.57Q700,22.27,700,53v8.8h32.82V92.59Z" transform="translate(-104.77 1.97)"/><path id="Path_10" data-name="Path 10" class="cls-1" d="M379.33,526H340.64V417a15.45,15.45,0,0,0-5.27-10.4q-5.28-5.41-8.94-5.42t-11.87,7V526H275.89V424.88a60.54,60.54,0,0,0-3.52-23.14,37.07,37.07,0,0,0-11.13-14.36l32.24-22.57a61.51,61.51,0,0,1,14.36,16.71q19-17,26.37-17,4.4,0,14.35,6.45a91.08,91.08,0,0,1,18.17,15.52q23.14-22,32.08-22t27,16.26q18,16.26,18,32.09V469.4a60.57,60.57,0,0,0,3.52,23.15,37.14,37.14,0,0,0,11.13,14.36L426.2,529.48Q405.11,512.79,405.1,482V417a15.45,15.45,0,0,0-5.27-10.4q-5.28-5.42-8.64-5.42t-12.46,7.32a24.24,24.24,0,0,1,.59,4.4ZM581.2,446.56v10.55H510.29a72.16,72.16,0,0,0,4.4,27.84,22.08,22.08,0,0,0,5.27,7.18,11.4,11.4,0,0,0,7.92,3.66q4.11,0,10.26-7a51.58,51.58,0,0,0,9.67-17L578,493.17a72.11,72.11,0,0,1-24.18,25.49q-16.26,10.83-26.22,10.84T498.72,514q-18.9-15.53-23-24.17T471.62,447q0-34.12,4.1-42.77t23-24.17q18.9-15.52,27.69-15.53t27.69,15.53q18.9,15.53,23,24.17T581.2,446.56Zm-40.73-36.62a25.3,25.3,0,0,0-6.59-7.92,13.61,13.61,0,0,0-8.5-3.8c-2.64,0-5.61,2.58-8.94,7.76s-5.37,12.94-6.15,23.3h33.4Q542.81,413.74,540.47,409.94Z" transform="translate(-104.77 1.97)"/></g></svg>