<svg id="Layer_1" data-name="Layer 1" xmlns="http://www.w3.org/2000/svg" viewBox="0 0 842.8 532.63"><defs><style>.cls-1{fill:none;stroke:#540a90;stroke-width:3.08px;}</style></defs><g id="Sunniva_Mathea" data-name="Sunniva Mathea"><path id="Path_6" data-name="Path 6" class="cls-1" d="M113.85,129.2q3,5,3,19.7a47.9,47.9,0,0,1-6.05,24.92q-5.5,8-23.39,22.16T61,210.15q-15.15,0-34.69-15.83T1.53,159.48l30.56-20.92a68,68,0,0,0,14,23.67Q55.76,173,59.75,173a17.18,17.18,0,0,0,8.53-2.62,28.05,28.05,0,0,0,7-5.37,21.63,21.63,0,0,0,3.58-13.76q0-9.36-4.4-11.56a113.58,113.58,0,0,0-21.34-12.39,255.82,255.82,0,0,1-29.31-16.65q-13.48-9-17.2-17.48A55.91,55.91,0,0,1,2.91,71,45.77,45.77,0,0,1,9,47.17q5.5-8,23.39-22.15T58.78,10.84q15.14,0,34.68,15.83t24.77,34.82L87.68,82.68a69.57,69.57,0,0,0-14-23.81Q64,48,60,48a18.81,18.81,0,0,0-8.68,2.48,23.1,23.1,0,0,0-7.56,6.19,21,21,0,0,0-2.89,12.66q0,9,5.5,12A126.1,126.1,0,0,0,66.48,93.42Q106.7,115.44,113.85,129.2Zm20.92-70.74h36.34v102.4a15.26,15.26,0,0,0,4.4,9.77,11.91,11.91,0,0,0,8.26,5.1q3.85,0,16-11.29v-106h36.33V206.83H208l-3.31-16.24q-20.64,19.54-28.9,19.54t-24.63-15.28q-16.38-15.27-16.38-30.15ZM305.44,206.83H269.11v-95a57,57,0,0,0-3.3-21.74,35,35,0,0,0-10.47-13.49l30.28-21.21a53,53,0,0,1,15.14,19q20.37-19.26,28.77-19.27t25.32,15.28q16.92,15.28,16.92,30.16V153.7a57.07,57.07,0,0,0,3.32,21.75,35.11,35.11,0,0,0,10.46,13.49l-30.27,21.19q-19.83-15.69-19.82-44.59V104.43a14.52,14.52,0,0,0-5-9.77,13.71,13.71,0,0,0-9.23-5.1q-4.27,0-15.83,11.57Zm138.46,0H407.56v-95a56.65,56.65,0,0,0-3.3-21.74A34.94,34.94,0,0,0,393.8,76.63l30.28-21.2a53.06,53.06,0,0,1,15.14,19Q459.59,55.15,468,55.16t25.33,15.28q16.92,15.27,16.92,30.15v53.13a57.12,57.12,0,0,0,3.3,21.75A34.94,34.94,0,0,0,524,189l-30.28,21.2q-19.83-15.71-19.82-44.6v-61.1a14.56,14.56,0,0,0-5-9.78,13.7,13.7,0,0,0-9.23-5.09q-4.26,0-15.83,11.56ZM539.15,58.46h36.33V153.7a57.09,57.09,0,0,0,3.3,21.75,35.11,35.11,0,0,0,10.46,13.49L559,210.13q-19.83-15.69-19.82-44.59ZM557.86.92q3,0,13.49,9T581.81,22q0,3.16-10.59,12.25t-13.49,9.08q-2.9,0-13.35-8.94T533.92,22.25q0-3.16,10.59-12.25T557.87.93Zm147,98.82v23.67q0,33-3.58,41t-22.16,26.84q-18.57,18.85-27.38,18.85t-27.53-18.85q-18.72-18.87-22.16-27.12t-3.44-40.74v-65H635v65q0,28.9,2.06,34a35,35,0,0,0,6.88,10.32q4.83,5.23,7.85,5.23t7.85-5.23a35,35,0,0,0,6.88-10.32q2.06-5.1,2.06-34V111.58a56.84,56.84,0,0,0-3.3-21.74,34.94,34.94,0,0,0-10.46-13.49l30.28-21.19q19.8,15.69,19.8,44.59ZM827.08,58.45V171.31q1.65,9.63,12.92,17.06l-24.77,21.2a48.66,48.66,0,0,1-8.81-8.81,80.13,80.13,0,0,1-8.81-12.93q-22.85,22.3-31.93,22.3-6.61,0-21.34-14.59T726,171.87q-3.59-9.08-3.58-39.23T726,93.42q3.57-9.09,18.3-23.67t21.34-14.59q9.63,0,31.1,19.82l3.3-16.52Zm-38.27,42.12a21.78,21.78,0,0,0-7.84-7.3,19.6,19.6,0,0,0-9-3.72,9.54,9.54,0,0,0-6.46,3.58A19.82,19.82,0,0,0,761,99.74q-3.59,5-3.58,32.89t3.58,32.9a22.6,22.6,0,0,0,4.54,6.46,9.45,9.45,0,0,0,6.46,3.72,19.71,19.71,0,0,0,9-3.72,23.51,23.51,0,0,0,7.69-6.75q1.79-3,2.06-32.2,0-29.16-1.91-32.47ZM104.37,526.79V386.68a15.74,15.74,0,0,0-1.78-7.85,36.48,36.48,0,0,0-5.92-7.3,11.3,11.3,0,0,0-6.6-4.12q-5.5,0-14.58,11A122.55,122.55,0,0,1,76.31,393V526.79h-38V409q0-23.39-3.17-32.76a79.86,79.86,0,0,0-13.35-22.3l33-23.12a36.75,36.75,0,0,1,12.66,15.14q19.82-15.13,28.08-15.14T126.67,352q22.86-21.19,32.21-21.19,6.88,0,23.54,14.46a149.28,149.28,0,0,1,20.78,20.37,26.65,26.65,0,0,1,4.11,15.54V526.79h-38V386.68a14.59,14.59,0,0,0-1.93-8.12,40.59,40.59,0,0,0-6.46-7,12.86,12.86,0,0,0-8-4.13q-3.45,0-10.88,9.08a27.18,27.18,0,0,1,.28,4.68V526.79ZM334,378.42V491.28q1.65,9.63,12.92,17.06l-24.77,21.2a49,49,0,0,1-8.81-8.81,80.49,80.49,0,0,1-8.81-12.92q-22.83,22.27-31.92,22.28-6.6,0-21.33-14.59t-18.31-23.67q-3.57-9.09-3.58-39.23t3.58-39.22q3.59-9.09,18.31-23.68t21.33-14.57q9.63,0,31.11,19.82l3.3-16.52Zm-38.26,42.11a21.87,21.87,0,0,0-7.85-7.29,19.55,19.55,0,0,0-8.95-3.72,9.51,9.51,0,0,0-6.46,3.58,19.82,19.82,0,0,0-4.54,6.61q-3.58,4.95-3.59,32.89t3.58,32.9a22.8,22.8,0,0,0,4.54,6.46,9.45,9.45,0,0,0,6.47,3.72,19.67,19.67,0,0,0,8.94-3.72,23.3,23.3,0,0,0,7.69-6.75q1.78-3,2.07-32.2Q297.61,423.84,295.69,420.53Zm109.54-13.21v60.83A36.49,36.49,0,0,0,414,491.83a60,60,0,0,0,24.22,17.06L408,530.09a79,79,0,0,1-27.8-21.34A44.43,44.43,0,0,1,368.9,480V407.32H355.13V386.68l13.77-3.3A75.72,75.72,0,0,0,365.59,362a39.83,39.83,0,0,0-10.46-15.27l30.28-21.2q19.81,15.69,19.82,44.59v8.26h30.83v28.91Zm94.14,119.47H463.05V376.49A54.72,54.72,0,0,0,459.74,355a37.81,37.81,0,0,0-10.46-13.49l30.28-21.19q19.81,15.69,19.82,44.31v25.6q17.07-15.15,24.77-15.14t24.64,15.27q16.92,15.28,16.92,30.16v53.13a57,57,0,0,0,3.3,21.74,35,35,0,0,0,10.47,13.49L549.2,530.09q-19.82-15.69-19.82-44.59V424.39a14.48,14.48,0,0,0-5-9.77,13.69,13.69,0,0,0-9.23-5.1q-4.26,0-15.83,11.56Zm195.44-74.6v9.91h-66.6a67.56,67.56,0,0,0,4.13,26.15,20.73,20.73,0,0,0,4.95,6.75,10.75,10.75,0,0,0,7.43,3.44q3.85,0,9.63-6.61a48.36,48.36,0,0,0,9.09-16L691.79,496a67.77,67.77,0,0,1-22.71,23.95q-15.27,10.19-24.63,10.18t-27.12-14.58q-17.75-14.6-21.6-22.71t-3.86-40.19q0-32.07,3.86-40.19t21.6-22.71q17.76-14.58,26-14.58t26,14.59Q687.11,404.3,691,412.43t3.86,39.76Zm-38.24-34.41a24,24,0,0,0-6.2-7.43,12.82,12.82,0,0,0-8-3.58q-3.72,0-8.39,7.3A48,48,0,0,0,628.21,436H659.6Q658.76,421.37,656.57,417.78ZM818.7,378.42V491.28q1.65,9.63,12.92,17.06l-24.77,21.2a49,49,0,0,1-8.81-8.81,80.49,80.49,0,0,1-8.81-12.92Q766.39,530.1,757.3,530.1q-6.62,0-21.33-14.59t-18.31-23.67q-3.58-9.07-3.58-39.22t3.58-39.23q3.58-9.09,18.31-23.67t21.33-14.59q9.63,0,31.11,19.82l3.3-16.52Zm-38.27,42.11a21.87,21.87,0,0,0-7.85-7.29,19.56,19.56,0,0,0-8.94-3.72,9.46,9.46,0,0,0-6.46,3.58,19.85,19.85,0,0,0-4.55,6.61q-3.57,4.95-3.57,32.89t3.57,32.89a22.88,22.88,0,0,0,4.55,6.47,9.38,9.38,0,0,0,6.46,3.71,19.65,19.65,0,0,0,8.94-3.71,23.55,23.55,0,0,0,7.7-6.75q1.79-3,2.06-32.2Q782.36,423.84,780.43,420.53Z" transform="translate(0.24 0.62)"/></g></svg>