<svg id="Layer_1" data-name="Layer 1" xmlns="http://www.w3.org/2000/svg" viewBox="0 0 832.83 524.33"><defs><style>.cls-1{fill:none;stroke:#540a90;stroke-width:3px;}</style></defs><path id="Path_6" data-name="Path 6" class="cls-1" d="M118.91,130.6q3,4.88,3,19.38t-6,24.52q-5.42,7.86-23,21.82t-26,14q-14.91,0-34.15-15.58T8.34,160.41l30.08-20.6a67.11,67.11,0,0,0,13.82,23.31q9.49,10.57,13.42,10.57a17,17,0,0,0,8.4-2.57A28.47,28.47,0,0,0,81,165.83q3.52-4.34,3.52-13.55T80.16,140.9q-5.43-4.6-21-12.2A249.53,249.53,0,0,1,30.3,112.3Q17,103.5,13.36,95.09T9.7,73.28q0-13.41,6-23.44Q21.08,42,38.69,28t26-14q14.91,0,34.15,15.58t24.39,34.28L93.17,84.8A68.27,68.27,0,0,0,79.34,61.36q-9.48-10.71-13.41-10.7a18.37,18.37,0,0,0-8.54,2.44,22.79,22.79,0,0,0-7.45,6.1q-2.85,3.66-2.84,12.46c0,5.88,1.8,9.8,5.42,11.79q4.33,3.8,19.78,11.93Q111.87,117,118.91,130.6ZM139.51,61h35.77V161.76q0,4.62,4.34,9.62t8.13,5q3.8,0,15.72-11.11V61h35.77V207H211.59l-3.25-16Q188,210.28,179.89,210.27t-24.26-15q-16.12-15-16.12-29.67ZM307.52,207H271.75v-93.5q0-13.81-3.25-21.41a34.38,34.38,0,0,0-10.3-13.28L288,58a52.12,52.12,0,0,1,14.91,18.7q20.06-19,28.32-19t24.93,15q16.66,15,16.67,29.67v52.3q0,13.83,3.25,21.41a34.48,34.48,0,0,0,10.3,13.28l-29.81,20.87q-19.51-15.45-19.51-43.9V106.21q0-4.6-4.88-9.62t-9.08-5q-4.2,0-15.58,11.38Zm136.32,0H408.07v-93.5q0-13.81-3.25-21.41a34.58,34.58,0,0,0-10.3-13.28L424.32,58a52.18,52.18,0,0,1,14.9,18.7q20.05-19,28.32-19t24.93,15q16.68,15,16.67,29.68v52.3q0,13.82,3.25,21.4a34.5,34.5,0,0,0,10.3,13.28l-29.8,20.87q-19.51-15.45-19.51-43.9V106.21q0-4.6-4.88-9.62t-9.08-5q-4.2,0-15.58,11.38ZM537.61,61h35.77v93.77q0,13.83,3.25,21.41a34.38,34.38,0,0,0,10.3,13.28l-29.81,20.86q-19.51-15.45-19.51-43.9ZM556,4.31q3,0,13.28,8.81t10.3,11.93q0,3.11-10.43,12.06T555.9,46.05q-2.85,0-13.14-8.81t-10.3-11.92q0-3.12,10.43-12.06T556,4.31ZM700.75,101.6v23.31q0,32.52-3.53,40.38t-21.81,26.42q-18.3,18.57-27,18.56t-27.1-18.56Q602.92,173.14,599.53,165t-3.39-40.11V61h35.77v64q0,28.46,2,33.47a34.33,34.33,0,0,0,6.77,10.16q4.74,5.15,7.73,5.15t7.72-5.15a34.33,34.33,0,0,0,6.77-10.16q2-5,2-33.47V113.26q0-13.83-3.26-21.41a34.31,34.31,0,0,0-10.3-13.28L681.23,57.7q19.51,15.45,19.52,43.9ZM821.07,61V172.06q1.63,9.49,12.74,16.8l-24.39,20.87a48.08,48.08,0,0,1-8.67-8.67,80,80,0,0,1-8.68-12.74q-22.49,22-31.43,22-6.5,0-21-14.36t-18-23.31q-3.51-8.94-3.52-38.61t3.52-38.62q3.52-8.94,18-23.31t21-14.36q9.48,0,30.62,19.51L794.51,61ZM783.4,102.42q-1.89-3.53-7.72-7.19t-8.81-3.65q-3,0-6.37,3.52a19.72,19.72,0,0,0-4.47,6.5q-3.53,4.88-3.52,32.38T756,166.37a22.63,22.63,0,0,0,4.47,6.37q3.39,3.64,6.37,3.65t8.81-3.65q5.82-3.66,7.59-6.64t2-31.71Q785.3,105.67,783.4,102.42ZM86.93,522V384.08a15.48,15.48,0,0,0-1.76-7.72,35.33,35.33,0,0,0-5.83-7.18c-2.71-2.71-4.87-4.07-6.5-4.07q-5.41,0-14.36,10.84a118.84,118.84,0,0,1,.81,14.36V522H21.89V406q0-23-3.11-32.25T5.63,351.83l32.52-22.76A36.18,36.18,0,0,1,50.62,344q19.52-14.91,27.64-14.9t30.62,20.87q22.5-20.88,31.71-20.87,6.78,0,23.17,14.23t20.46,20.05q4.07,5.82,4.07,15.31V522h-37.4V384.08c0-3.43-.64-6.1-1.9-8a40.92,40.92,0,0,0-6.37-6.91q-4.47-4.06-7.86-4.07t-10.7,8.94a27.37,27.37,0,0,1,.27,4.61V522ZM313,376V487.06q1.62,9.49,12.73,16.8l-24.39,20.87a48.08,48.08,0,0,1-8.67-8.67A79.91,79.91,0,0,1,284,503.32q-22.5,21.95-31.44,21.95-6.49,0-21-14.36t-18-23.31Q210,478.66,210,449t3.52-38.61q3.52-9,18-23.31t21-14.36q9.5,0,30.63,19.51L286.39,376Zm-37.67,41.47q-1.9-3.53-7.73-7.19t-8.8-3.65q-3,0-6.37,3.52a19.43,19.43,0,0,0-4.47,6.5q-3.53,4.88-3.53,32.38t3.53,32.39a22.29,22.29,0,0,0,4.47,6.37q3.39,3.64,6.37,3.66t8.8-3.66q5.83-3.66,7.59-6.64t2-31.71q0-28.72-1.89-32Zm107.86-13V464.3a35.84,35.84,0,0,0,8.67,23.3q8.67,10.57,23.85,16.8l-29.81,20.87a77.73,77.73,0,0,1-27.38-21q-11.1-13.41-11.11-28.32V404.41H333.81V384.08l13.55-3.25q-.54-13.27-3.25-21t-10.3-15l29.81-20.87q19.51,15.45,19.51,43.9V376h30.36v28.46ZM475.82,522H440.05v-148q0-13.83-3.26-21.14a37.28,37.28,0,0,0-10.3-13.28l29.81-20.87q19.51,15.45,19.52,43.63v25.2q16.8-14.89,24.39-14.9t24.25,15q16.66,15,16.67,29.68v52.3q0,13.81,3.25,21.41a34.35,34.35,0,0,0,10.3,13.27l-29.81,20.87q-19.51-15.45-19.51-43.9V421.21q0-4.6-4.88-9.62t-9.08-5q-4.2,0-15.58,11.38Zm192.4-73.44v9.76H602.65q0,16.26,4.06,25.74a20.49,20.49,0,0,0,4.88,6.64q3.52,3.39,7.32,3.39c2.52,0,5.69-2.17,9.48-6.5a47.61,47.61,0,0,0,8.94-15.72l27.92,19.78q-7.32,13.56-22.36,23.58t-24.26,10q-9.21,0-26.69-14.37t-21.27-22.35q-3.79-8-3.8-39.57t3.8-39.57q3.8-8,21.27-22.35t25.61-14.37q8.13,0,25.61,14.37t21.27,22.35Q668.23,417.42,668.22,448.58Zm-37.67-33.87a23.17,23.17,0,0,0-6.1-7.32q-4.2-3.52-7.86-3.52t-8.26,7.18q-4.61,7.18-5.69,21.54h30.89q-.81-14.35-3-17.88ZM790.17,376V487.06q1.64,9.49,12.74,16.8l-24.39,20.87a48.08,48.08,0,0,1-8.67-8.67,79.25,79.25,0,0,1-8.67-12.74q-22.5,22-31.44,21.95-6.5,0-21-14.36t-18-23.31q-3.53-8.94-3.52-38.61t3.52-38.62q3.53-8.94,18-23.31t21-14.36q9.5,0,30.63,19.51L763.62,376ZM752.5,417.42q-1.89-3.53-7.72-7.19T736,406.58c-2,0-4.11,1.17-6.37,3.52a19.72,19.72,0,0,0-4.47,6.5q-3.52,4.88-3.52,32.38t3.52,32.39a22.49,22.49,0,0,0,4.47,6.37c2.26,2.43,4.39,3.65,6.37,3.66s4.93-1.22,8.81-3.66,6.41-4.66,7.59-6.64,1.85-12.56,2-31.71q0-28.72-1.89-32Z" transform="translate(-3.47 -2.81)"/></svg>